{
  "asset": { "version": "2.0", "generator": "VECTARY" },
  "nodes": [
    {
      "translation": [
        -1.1191893867375013, 1.1410795572570938, 2.4310586282449567
      ],
      "scale": [0.0596806112153124, 0.005000000000000002, 0.06103672258345528],
      "rotation": [
        -0.7970942561339426, 0.046265815768787875, -0.06157421240691989,
        0.5989230647553929
      ],
      "name": "3D Fromt - J",
      "mesh": 0
    },
    {
      "translation": [0.35411706285579, 0.9211385632260118, 2.494786115835931],
      "scale": [0.0596806112153124, 0.005000000000000002, 0.06103672258345528],
      "rotation": [
        -0.7970942561339426, 0.046265815768787875, -0.06157421240691989,
        0.5989230647553929
      ],
      "name": "3D Fromt - S",
      "mesh": 1
    },
    {
      "translation": [
        -0.43078016941450004, 5.295318030404088, 0.8532402579256491
      ],
      "scale": [0.05968061121531241, 0.005000000000000003, 0.06103672258345529],
      "rotation": [
        -0.9871333142547258, 0.07625441520639129, -0.010824671071916502,
        -0.14012819325958975
      ],
      "name": "3D Top - J",
      "mesh": 2
    },
    {
      "translation": [
        1.0425262801787916, 5.075377036373007, 0.9169677455166239
      ],
      "scale": [0.05968061121531241, 0.005000000000000003, 0.06103672258345529],
      "rotation": [
        -0.9871333142547258, 0.07625441520639129, -0.010824671071916502,
        -0.14012819325958975
      ],
      "name": "3D Top - S",
      "mesh": 3
    },
    {
      "translation": [
        1.0196487961130816, 0.39907702815361473, 2.277238919402886
      ],
      "scale": [
        0.059680611215312436, 0.0050000000000000044, 0.061036722583455286
      ],
      "rotation": [
        0.07625441520639112, 0.9871333142547258, -0.1401281932595897,
        0.010824671071916488
      ],
      "name": "3D Bottom - J",
      "mesh": 4
    },
    {
      "translation": [
        -0.4536576534802107, 0.619018022184696, 2.2135114318119116
      ],
      "scale": [
        0.059680611215312436, 0.0050000000000000044, 0.061036722583455286
      ],
      "rotation": [
        0.07625441520639112, 0.9871333142547258, -0.1401281932595897,
        0.010824671071916488
      ],
      "name": "3D Bottom - S",
      "mesh": 5
    },
    {
      "translation": [
        -2.4545343918180724, 0.36066603818645393, -1.0081180140479586
      ],
      "scale": [
        0.05968061121531243, 0.005000000000000004, 0.061036722583455286
      ],
      "rotation": [
        -0.5963456258243951, -0.5309158816899202, -0.467042103636722,
        0.3799630173584142
      ],
      "name": "3D Left - J",
      "mesh": 6
    },
    {
      "translation": [
        -2.4545343918180724, 0.7756119424697026, 0.423973821157377
      ],
      "scale": [
        0.05968061121531243, 0.005000000000000004, 0.061036722583455286
      ],
      "rotation": [
        -0.5963456258243951, -0.5309158816899202, -0.467042103636722,
        0.3799630173584142
      ],
      "name": "3D Left - S",
      "mesh": 7
    },
    {
      "translation": [
        2.280311219586318, 0.2715985942604344, 1.3287762318463425
      ],
      "scale": [
        0.05968061121531243, 0.005000000000000004, 0.061036722583455286
      ],
      "rotation": [
        -0.5309158816899203, 0.5963456258243949, 0.37996301735841415,
        0.46704210363672205
      ],
      "name": "3D Right - J",
      "mesh": 8
    },
    {
      "translation": [
        2.280311219586318, -0.1433473100228144, -0.1033156033589932
      ],
      "scale": [
        0.05968061121531243, 0.005000000000000004, 0.061036722583455286
      ],
      "rotation": [
        -0.5309158816899203, 0.5963456258243949, 0.37996301735841415,
        0.46704210363672205
      ],
      "name": "3D Right - S",
      "mesh": 9
    },
    {
      "translation": [
        -0.14959296708933653, -0.10781081523850096, 0.290202328030799
      ],
      "scale": [0.049999999999999996, 0.05000000000000001, 0.05],
      "rotation": [
        -0.7970942561339426, 0.04626581576878787, -0.0615742124069199,
        0.5989230647553929
      ],
      "name": "Box",
      "mesh": 10
    },
    {
      "translation": [
        1.070860128289457, -0.52492153233914, -2.0956801834875174
      ],
      "scale": [
        0.05968061121531244, 0.005000000000000004, 0.061036722583455286
      ],
      "rotation": [
        0.0462658157687878, 0.7970942561339427, 0.598923064755393,
        0.06157421240691989
      ],
      "name": "3D Back - J",
      "mesh": 11
    },
    {
      "translation": [
        -0.4024463213038355, -0.3049805383080585, -2.1594076710784913
      ],
      "scale": [
        0.05968061121531244, 0.005000000000000004, 0.061036722583455286
      ],
      "rotation": [
        0.0462658157687878, 0.7970942561339427, 0.598923064755393,
        0.06157421240691989
      ],
      "name": "3D Back - S",
      "mesh": 12
    }
  ],
  "materials": [
    {
      "pbrMetallicRoughness": {
        "baseColorFactor": [1, 1, 1, 1],
        "metallicFactor": 0,
        "roughnessFactor": 0.2
      },
      "name": "Madison",
      "emissiveFactor": [0, 0, 0],
      "extensions": {},
      "alphaMode": "OPAQUE",
      "doubleSided": false
    },
    {
      "pbrMetallicRoughness": {
        "baseColorFactor": [1, 1, 1, 1],
        "metallicFactor": 0,
        "roughnessFactor": 0.2
      },
      "name": "Madison 4",
      "emissiveFactor": [0, 0, 0],
      "extensions": {},
      "alphaMode": "OPAQUE",
      "doubleSided": false
    },
    {
      "pbrMetallicRoughness": {
        "baseColorFactor": [1, 1, 1, 1],
        "metallicFactor": 0,
        "roughnessFactor": 0.2
      },
      "name": "Madison 5",
      "emissiveFactor": [0, 0, 0],
      "extensions": {},
      "alphaMode": "OPAQUE",
      "doubleSided": false
    },
    {
      "pbrMetallicRoughness": {
        "baseColorFactor": [1, 1, 1, 1],
        "metallicFactor": 0,
        "roughnessFactor": 0.2
      },
      "name": "Madison 1",
      "emissiveFactor": [0, 0, 0],
      "extensions": {},
      "alphaMode": "OPAQUE",
      "doubleSided": false
    },
    {
      "pbrMetallicRoughness": {
        "baseColorFactor": [1, 1, 1, 1],
        "metallicFactor": 0,
        "roughnessFactor": 0.2
      },
      "name": "Madison 2",
      "emissiveFactor": [0, 0, 0],
      "extensions": {},
      "alphaMode": "OPAQUE",
      "doubleSided": false
    },
    {
      "pbrMetallicRoughness": {
        "baseColorFactor": [
          0.8912620368134188, 0.6800203421720954, 0.011881334434813665, 1
        ],
        "metallicFactor": 0.25,
        "roughnessFactor": 1
      },
      "name": "Eternity",
      "emissiveFactor": [0, 0, 0],
      "extensions": {},
      "alphaMode": "OPAQUE",
      "doubleSided": false
    },
    {
      "pbrMetallicRoughness": {
        "baseColorFactor": [1, 1, 1, 1],
        "metallicFactor": 0,
        "roughnessFactor": 0.2
      },
      "name": "Madison 3",
      "emissiveFactor": [0, 0, 0],
      "extensions": {},
      "alphaMode": "OPAQUE",
      "doubleSided": false
    }
  ],
  "meshes": [
    {
      "primitives": [
        {
          "mode": 4,
          "attributes": { "POSITION": 1, "NORMAL": 2, "TEXCOORD_0": 3 },
          "material": 0,
          "indices": 0
        }
      ]
    },
    {
      "primitives": [
        {
          "mode": 4,
          "attributes": { "POSITION": 5, "NORMAL": 6, "TEXCOORD_0": 7 },
          "material": 0,
          "indices": 4
        }
      ]
    },
    {
      "primitives": [
        {
          "mode": 4,
          "attributes": { "POSITION": 9, "NORMAL": 10, "TEXCOORD_0": 11 },
          "material": 1,
          "indices": 8
        }
      ]
    },
    {
      "primitives": [
        {
          "mode": 4,
          "attributes": { "POSITION": 13, "NORMAL": 14, "TEXCOORD_0": 15 },
          "material": 1,
          "indices": 12
        }
      ]
    },
    {
      "primitives": [
        {
          "mode": 4,
          "attributes": { "POSITION": 17, "NORMAL": 18, "TEXCOORD_0": 19 },
          "material": 2,
          "indices": 16
        }
      ]
    },
    {
      "primitives": [
        {
          "mode": 4,
          "attributes": { "POSITION": 21, "NORMAL": 22, "TEXCOORD_0": 23 },
          "material": 2,
          "indices": 20
        }
      ]
    },
    {
      "primitives": [
        {
          "mode": 4,
          "attributes": { "POSITION": 25, "NORMAL": 26, "TEXCOORD_0": 27 },
          "material": 3,
          "indices": 24
        }
      ]
    },
    {
      "primitives": [
        {
          "mode": 4,
          "attributes": { "POSITION": 29, "NORMAL": 30, "TEXCOORD_0": 31 },
          "material": 3,
          "indices": 28
        }
      ]
    },
    {
      "primitives": [
        {
          "mode": 4,
          "attributes": { "POSITION": 33, "NORMAL": 34, "TEXCOORD_0": 35 },
          "material": 4,
          "indices": 32
        }
      ]
    },
    {
      "primitives": [
        {
          "mode": 4,
          "attributes": { "POSITION": 37, "NORMAL": 38, "TEXCOORD_0": 39 },
          "material": 4,
          "indices": 36
        }
      ]
    },
    {
      "primitives": [
        {
          "mode": 4,
          "attributes": { "POSITION": 41, "NORMAL": 42, "TEXCOORD_0": 43 },
          "material": 5,
          "indices": 40
        }
      ]
    },
    {
      "primitives": [
        {
          "mode": 4,
          "attributes": { "POSITION": 45, "NORMAL": 46, "TEXCOORD_0": 47 },
          "material": 6,
          "indices": 44
        }
      ]
    },
    {
      "primitives": [
        {
          "mode": 4,
          "attributes": { "POSITION": 49, "NORMAL": 50, "TEXCOORD_0": 51 },
          "material": 6,
          "indices": 48
        }
      ]
    }
  ],
  "accessors": [
    {
      "bufferView": 0,
      "byteOffset": 0,
      "componentType": 5125,
      "count": 516,
      "type": "SCALAR"
    },
    {
      "bufferView": 1,
      "byteOffset": 0,
      "componentType": 5126,
      "count": 346,
      "max": [24.31599998474121, 2.1766260702735327e-15, 35.547000885009766],
      "min": [1.0989999771118164, -30, -0.4880000054836273],
      "type": "VEC3"
    },
    {
      "bufferView": 2,
      "byteOffset": 0,
      "componentType": 5126,
      "count": 346,
      "type": "VEC3"
    },
    {
      "bufferView": 3,
      "byteOffset": 0,
      "componentType": 5126,
      "count": 346,
      "type": "VEC2"
    },
    {
      "bufferView": 4,
      "byteOffset": 0,
      "componentType": 5125,
      "count": 1632,
      "type": "SCALAR"
    },
    {
      "bufferView": 5,
      "byteOffset": 0,
      "componentType": 5126,
      "count": 1090,
      "max": [28.368999481201172, 2.2065072750702963e-15, 36.03499984741211],
      "min": [1.8070000410079956, -30, -0.4880000054836273],
      "type": "VEC3"
    },
    {
      "bufferView": 6,
      "byteOffset": 0,
      "componentType": 5126,
      "count": 1090,
      "type": "VEC3"
    },
    {
      "bufferView": 7,
      "byteOffset": 0,
      "componentType": 5126,
      "count": 1090,
      "type": "VEC2"
    },
    {
      "bufferView": 8,
      "byteOffset": 0,
      "componentType": 5125,
      "count": 516,
      "type": "SCALAR"
    },
    {
      "bufferView": 9,
      "byteOffset": 0,
      "componentType": 5126,
      "count": 346,
      "max": [24.31599998474121, 2.1766260702735327e-15, 35.547000885009766],
      "min": [1.0989999771118164, -30, -0.4880000054836273],
      "type": "VEC3"
    },
    {
      "bufferView": 10,
      "byteOffset": 0,
      "componentType": 5126,
      "count": 346,
      "type": "VEC3"
    },
    {
      "bufferView": 11,
      "byteOffset": 0,
      "componentType": 5126,
      "count": 346,
      "type": "VEC2"
    },
    {
      "bufferView": 12,
      "byteOffset": 0,
      "componentType": 5125,
      "count": 1632,
      "type": "SCALAR"
    },
    {
      "bufferView": 13,
      "byteOffset": 0,
      "componentType": 5126,
      "count": 1090,
      "max": [28.368999481201172, 2.2065072750702963e-15, 36.03499984741211],
      "min": [1.8070000410079956, -30, -0.4880000054836273],
      "type": "VEC3"
    },
    {
      "bufferView": 14,
      "byteOffset": 0,
      "componentType": 5126,
      "count": 1090,
      "type": "VEC3"
    },
    {
      "bufferView": 15,
      "byteOffset": 0,
      "componentType": 5126,
      "count": 1090,
      "type": "VEC2"
    },
    {
      "bufferView": 16,
      "byteOffset": 0,
      "componentType": 5125,
      "count": 516,
      "type": "SCALAR"
    },
    {
      "bufferView": 17,
      "byteOffset": 0,
      "componentType": 5126,
      "count": 346,
      "max": [24.31599998474121, 2.1766260702735327e-15, 35.547000885009766],
      "min": [1.0989999771118164, -30, -0.4880000054836273],
      "type": "VEC3"
    },
    {
      "bufferView": 18,
      "byteOffset": 0,
      "componentType": 5126,
      "count": 346,
      "type": "VEC3"
    },
    {
      "bufferView": 19,
      "byteOffset": 0,
      "componentType": 5126,
      "count": 346,
      "type": "VEC2"
    },
    {
      "bufferView": 20,
      "byteOffset": 0,
      "componentType": 5125,
      "count": 1632,
      "type": "SCALAR"
    },
    {
      "bufferView": 21,
      "byteOffset": 0,
      "componentType": 5126,
      "count": 1090,
      "max": [28.368999481201172, 2.2065072750702963e-15, 36.03499984741211],
      "min": [1.8070000410079956, -30, -0.4880000054836273],
      "type": "VEC3"
    },
    {
      "bufferView": 22,
      "byteOffset": 0,
      "componentType": 5126,
      "count": 1090,
      "type": "VEC3"
    },
    {
      "bufferView": 23,
      "byteOffset": 0,
      "componentType": 5126,
      "count": 1090,
      "type": "VEC2"
    },
    {
      "bufferView": 24,
      "byteOffset": 0,
      "componentType": 5125,
      "count": 516,
      "type": "SCALAR"
    },
    {
      "bufferView": 25,
      "byteOffset": 0,
      "componentType": 5126,
      "count": 346,
      "max": [24.31599998474121, 2.1766260702735327e-15, 35.547000885009766],
      "min": [1.0989999771118164, -30, -0.4880000054836273],
      "type": "VEC3"
    },
    {
      "bufferView": 26,
      "byteOffset": 0,
      "componentType": 5126,
      "count": 346,
      "type": "VEC3"
    },
    {
      "bufferView": 27,
      "byteOffset": 0,
      "componentType": 5126,
      "count": 346,
      "type": "VEC2"
    },
    {
      "bufferView": 28,
      "byteOffset": 0,
      "componentType": 5125,
      "count": 1632,
      "type": "SCALAR"
    },
    {
      "bufferView": 29,
      "byteOffset": 0,
      "componentType": 5126,
      "count": 1090,
      "max": [28.368999481201172, 2.2065072750702963e-15, 36.03499984741211],
      "min": [1.8070000410079956, -30, -0.4880000054836273],
      "type": "VEC3"
    },
    {
      "bufferView": 30,
      "byteOffset": 0,
      "componentType": 5126,
      "count": 1090,
      "type": "VEC3"
    },
    {
      "bufferView": 31,
      "byteOffset": 0,
      "componentType": 5126,
      "count": 1090,
      "type": "VEC2"
    },
    {
      "bufferView": 32,
      "byteOffset": 0,
      "componentType": 5125,
      "count": 516,
      "type": "SCALAR"
    },
    {
      "bufferView": 33,
      "byteOffset": 0,
      "componentType": 5126,
      "count": 346,
      "max": [24.31599998474121, 2.1766260702735327e-15, 35.547000885009766],
      "min": [1.0989999771118164, -30, -0.4880000054836273],
      "type": "VEC3"
    },
    {
      "bufferView": 34,
      "byteOffset": 0,
      "componentType": 5126,
      "count": 346,
      "type": "VEC3"
    },
    {
      "bufferView": 35,
      "byteOffset": 0,
      "componentType": 5126,
      "count": 346,
      "type": "VEC2"
    },
    {
      "bufferView": 36,
      "byteOffset": 0,
      "componentType": 5125,
      "count": 1632,
      "type": "SCALAR"
    },
    {
      "bufferView": 37,
      "byteOffset": 0,
      "componentType": 5126,
      "count": 1090,
      "max": [28.368999481201172, 2.2065072750702963e-15, 36.03499984741211],
      "min": [1.8070000410079956, -30, -0.4880000054836273],
      "type": "VEC3"
    },
    {
      "bufferView": 38,
      "byteOffset": 0,
      "componentType": 5126,
      "count": 1090,
      "type": "VEC3"
    },
    {
      "bufferView": 39,
      "byteOffset": 0,
      "componentType": 5126,
      "count": 1090,
      "type": "VEC2"
    },
    {
      "bufferView": 40,
      "byteOffset": 0,
      "componentType": 5125,
      "count": 2916,
      "type": "SCALAR"
    },
    {
      "bufferView": 41,
      "byteOffset": 0,
      "componentType": 5126,
      "count": 596,
      "max": [50, 50, 100],
      "min": [-50, -50, 0],
      "type": "VEC3"
    },
    {
      "bufferView": 42,
      "byteOffset": 0,
      "componentType": 5126,
      "count": 596,
      "type": "VEC3"
    },
    {
      "bufferView": 43,
      "byteOffset": 0,
      "componentType": 5126,
      "count": 596,
      "type": "VEC2"
    },
    {
      "bufferView": 44,
      "byteOffset": 0,
      "componentType": 5125,
      "count": 516,
      "type": "SCALAR"
    },
    {
      "bufferView": 45,
      "byteOffset": 0,
      "componentType": 5126,
      "count": 346,
      "max": [24.31599998474121, 2.1766260702735327e-15, 35.547000885009766],
      "min": [1.0989999771118164, -30, -0.4880000054836273],
      "type": "VEC3"
    },
    {
      "bufferView": 46,
      "byteOffset": 0,
      "componentType": 5126,
      "count": 346,
      "type": "VEC3"
    },
    {
      "bufferView": 47,
      "byteOffset": 0,
      "componentType": 5126,
      "count": 346,
      "type": "VEC2"
    },
    {
      "bufferView": 48,
      "byteOffset": 0,
      "componentType": 5125,
      "count": 1632,
      "type": "SCALAR"
    },
    {
      "bufferView": 49,
      "byteOffset": 0,
      "componentType": 5126,
      "count": 1090,
      "max": [28.368999481201172, 2.2065072750702963e-15, 36.03499984741211],
      "min": [1.8070000410079956, -30, -0.4880000054836273],
      "type": "VEC3"
    },
    {
      "bufferView": 50,
      "byteOffset": 0,
      "componentType": 5126,
      "count": 1090,
      "type": "VEC3"
    },
    {
      "bufferView": 51,
      "byteOffset": 0,
      "componentType": 5126,
      "count": 1090,
      "type": "VEC2"
    }
  ],
  "bufferViews": [
    { "buffer": 0, "byteOffset": 0, "byteLength": 2064, "target": 34963 },
    { "buffer": 0, "byteOffset": 2064, "byteLength": 4152, "target": 34962 },
    { "buffer": 0, "byteOffset": 6216, "byteLength": 4152, "target": 34962 },
    { "buffer": 0, "byteOffset": 10368, "byteLength": 2768, "target": 34962 },
    { "buffer": 0, "byteOffset": 13136, "byteLength": 6528, "target": 34963 },
    { "buffer": 0, "byteOffset": 19664, "byteLength": 13080, "target": 34962 },
    { "buffer": 0, "byteOffset": 32744, "byteLength": 13080, "target": 34962 },
    { "buffer": 0, "byteOffset": 45824, "byteLength": 8720, "target": 34962 },
    { "buffer": 0, "byteOffset": 54544, "byteLength": 2064, "target": 34963 },
    { "buffer": 0, "byteOffset": 56608, "byteLength": 4152, "target": 34962 },
    { "buffer": 0, "byteOffset": 60760, "byteLength": 4152, "target": 34962 },
    { "buffer": 0, "byteOffset": 64912, "byteLength": 2768, "target": 34962 },
    { "buffer": 0, "byteOffset": 67680, "byteLength": 6528, "target": 34963 },
    { "buffer": 0, "byteOffset": 74208, "byteLength": 13080, "target": 34962 },
    { "buffer": 0, "byteOffset": 87288, "byteLength": 13080, "target": 34962 },
    { "buffer": 0, "byteOffset": 100368, "byteLength": 8720, "target": 34962 },
    { "buffer": 0, "byteOffset": 109088, "byteLength": 2064, "target": 34963 },
    { "buffer": 0, "byteOffset": 111152, "byteLength": 4152, "target": 34962 },
    { "buffer": 0, "byteOffset": 115304, "byteLength": 4152, "target": 34962 },
    { "buffer": 0, "byteOffset": 119456, "byteLength": 2768, "target": 34962 },
    { "buffer": 0, "byteOffset": 122224, "byteLength": 6528, "target": 34963 },
    { "buffer": 0, "byteOffset": 128752, "byteLength": 13080, "target": 34962 },
    { "buffer": 0, "byteOffset": 141832, "byteLength": 13080, "target": 34962 },
    { "buffer": 0, "byteOffset": 154912, "byteLength": 8720, "target": 34962 },
    { "buffer": 0, "byteOffset": 163632, "byteLength": 2064, "target": 34963 },
    { "buffer": 0, "byteOffset": 165696, "byteLength": 4152, "target": 34962 },
    { "buffer": 0, "byteOffset": 169848, "byteLength": 4152, "target": 34962 },
    { "buffer": 0, "byteOffset": 174000, "byteLength": 2768, "target": 34962 },
    { "buffer": 0, "byteOffset": 176768, "byteLength": 6528, "target": 34963 },
    { "buffer": 0, "byteOffset": 183296, "byteLength": 13080, "target": 34962 },
    { "buffer": 0, "byteOffset": 196376, "byteLength": 13080, "target": 34962 },
    { "buffer": 0, "byteOffset": 209456, "byteLength": 8720, "target": 34962 },
    { "buffer": 0, "byteOffset": 218176, "byteLength": 2064, "target": 34963 },
    { "buffer": 0, "byteOffset": 220240, "byteLength": 4152, "target": 34962 },
    { "buffer": 0, "byteOffset": 224392, "byteLength": 4152, "target": 34962 },
    { "buffer": 0, "byteOffset": 228544, "byteLength": 2768, "target": 34962 },
    { "buffer": 0, "byteOffset": 231312, "byteLength": 6528, "target": 34963 },
    { "buffer": 0, "byteOffset": 237840, "byteLength": 13080, "target": 34962 },
    { "buffer": 0, "byteOffset": 250920, "byteLength": 13080, "target": 34962 },
    { "buffer": 0, "byteOffset": 264000, "byteLength": 8720, "target": 34962 },
    { "buffer": 0, "byteOffset": 272720, "byteLength": 11664, "target": 34963 },
    { "buffer": 0, "byteOffset": 284384, "byteLength": 7152, "target": 34962 },
    { "buffer": 0, "byteOffset": 291536, "byteLength": 7152, "target": 34962 },
    { "buffer": 0, "byteOffset": 298688, "byteLength": 4768, "target": 34962 },
    { "buffer": 0, "byteOffset": 303456, "byteLength": 2064, "target": 34963 },
    { "buffer": 0, "byteOffset": 305520, "byteLength": 4152, "target": 34962 },
    { "buffer": 0, "byteOffset": 309672, "byteLength": 4152, "target": 34962 },
    { "buffer": 0, "byteOffset": 313824, "byteLength": 2768, "target": 34962 },
    { "buffer": 0, "byteOffset": 316592, "byteLength": 6528, "target": 34963 },
    { "buffer": 0, "byteOffset": 323120, "byteLength": 13080, "target": 34962 },
    { "buffer": 0, "byteOffset": 336200, "byteLength": 13080, "target": 34962 },
    { "buffer": 0, "byteOffset": 349280, "byteLength": 8720, "target": 34962 }
  ],
  "scene": 0,
  "scenes": [
    {
      "nodes": [0, 1, 2, 3, 4, 5, 6, 7, 8, 9, 10, 11, 12],
      "name": "JavaScript Cube"
    }
  ],
  "extensionsUsed": ["KHR_texture_transform"],
  "buffers": [{ "byteLength": 358000, "uri": "JavaScriptCube.bin" }]
}
