{"asset":{"version":"2.0","generator":"VECTARY"},"nodes":[{"translation":[-0.30308727418089804,-0.716032920766595,-0.011873335386712484],"scale":[0.001,0.001,0.001],"rotation":[-0.7071067811865475,0,0,0.7071067811865476],"name":"Cube","children":[1,2,3,4,5,6,7,8,9,10,11,12,13]},{"translation":[-895.8239951133555,-4942.4652928337255,1815.692728410657],"scale":[91.60419912602863,16.66666666666667,95.82903927184701],"rotation":[-0.01310057782805806,-0.06521580445871115,-0.03160136546031906,0.9972846270801619],"name":"3D Front - T","mesh":0},{"translation":[1579.7923239498068,-5095.887452528621,2143.20436585304],"scale":[91.60419912602863,16.66666666666667,95.82903927184701],"rotation":[-0.01310057782805806,-0.06521580445871115,-0.03160136546031906,0.9972846270801619],"name":"3D Front - S","mesh":1},{"translation":[-1955.2111009577854,-3499.0755331303876,10499.61005073509],"scale":[91.60419912602863,16.66666666666667,95.82903927184701],"rotation":[-0.7144502300011616,-0.023768997761544657,-0.06846007738503654,0.6959232151617978],"name":"3D Top - T","mesh":2},{"translation":[520.405218105377,-3652.4976928252836,10827.121688177473],"scale":[91.60419912602863,16.66666666666667,95.82903927184701],"rotation":[-0.7144502300011616,-0.023768997761544657,-0.06846007738503654,0.6959232151617978],"name":"3D Top - S","mesh":3},{"translation":[-4350.233282888917,1300.1962808760013,1174.6877822658564],"scale":[91.60419912602865,16.666666666666668,95.82903927184701],"rotation":[0.03685103015360861,-0.05537804499297254,-0.7275322623932254,0.6828411827697337],"name":"3D Left - T","mesh":4},{"translation":[-4512.205565751072,-1195.8428867137043,1229.7499689277722],"scale":[91.60419912602865,16.666666666666668,95.82903927184701],"rotation":[0.03685103015360861,-0.05537804499297254,-0.7275322623932254,0.6828411827697337],"name":"3D Left - S","mesh":5},{"translation":[1993.1219859120247,4794.091497332848,1895.2427419673006],"scale":[91.60419912602862,16.666666666666668,95.82903927184701],"rotation":[-0.06521580445871115,0.013100577828058051,0.9972846270801619,0.03160136546031913],"name":"3D Back - T","mesh":6},{"translation":[-482.4943331511373,4947.513657027745,1567.7311045249176],"scale":[91.60419912602862,16.666666666666668,95.82903927184701],"rotation":[-0.06521580445871115,0.013100577828058051,0.9972846270801619,0.03160136546031913],"name":"3D Back - S","mesh":7},{"translation":[1559.462430415695,-4045.137713691916,1032.497939077833],"scale":[91.60419912602869,16.666666666666675,95.82903927184701],"rotation":[-0.023768997761544758,0.7144502300011615,0.6959232151617978,0.06846007738503661],"name":"3D Bottom - T","mesh":8},{"translation":[-916.1538886474688,-3891.71555399702,704.986301635449],"scale":[91.60419912602869,16.666666666666675,95.82903927184701],"rotation":[-0.023768997761544758,0.7144502300011615,0.6959232151617978,0.06846007738503661],"name":"3D Bottom - S","mesh":9},{"translation":[646.2472308165266,-76.14705141161676,706.4152470099066],"scale":[100,99.99999999999999,100],"rotation":[-0.013100577828058053,-0.06521580445871115,-0.03160136546031905,0.9972846270801619],"name":"Box","mesh":10},{"translation":[5304.974704193713,-1480.3594535134134,2518.6280934180018],"scale":[91.60419912602865,16.666666666666668,95.82903927184701],"rotation":[-0.05537804499297255,-0.036851030153608584,0.6828411827697337,0.7275322623932254],"name":"3D Right - T","mesh":11},{"translation":[5466.946987055867,1015.6797140762922,2463.5659067560855],"scale":[91.60419912602865,16.666666666666668,95.82903927184701],"rotation":[-0.05537804499297255,-0.036851030153608584,0.6828411827697337,0.7275322623932254],"name":"3D Right - S","mesh":12}],"materials":[{"pbrMetallicRoughness":{"baseColorFactor":[0.8670237934377415,0.8670237934377415,0.8670237934377415,1],"metallicFactor":0,"roughnessFactor":0.2},"name":"Crystal Mist","emissiveFactor":[0,0,0],"extensions":{},"alphaMode":"OPAQUE","doubleSided":false},{"pbrMetallicRoughness":{"baseColorFactor":[0.8670237934377415,0.8670237934377415,0.8670237934377415,1],"metallicFactor":0,"roughnessFactor":0.2},"name":"Crystal Mist 4","emissiveFactor":[0,0,0],"extensions":{},"alphaMode":"OPAQUE","doubleSided":false},{"pbrMetallicRoughness":{"baseColorFactor":[0.8670237934377415,0.8670237934377415,0.8670237934377415,1],"metallicFactor":0,"roughnessFactor":0.2},"name":"Crystal Mist 1","emissiveFactor":[0,0,0],"extensions":{},"alphaMode":"OPAQUE","doubleSided":false},{"pbrMetallicRoughness":{"baseColorFactor":[0.8670237934377415,0.8670237934377415,0.8670237934377415,1],"metallicFactor":0,"roughnessFactor":0.2},"name":"Crystal Mist 3","emissiveFactor":[0,0,0],"extensions":{},"alphaMode":"OPAQUE","doubleSided":false},{"pbrMetallicRoughness":{"baseColorFactor":[0.8670237934377415,0.8670237934377415,0.8670237934377415,1],"metallicFactor":0,"roughnessFactor":0.2},"name":"Crystal Mist 5","emissiveFactor":[0,0,0],"extensions":{},"alphaMode":"OPAQUE","doubleSided":false},{"pbrMetallicRoughness":{"baseColorFactor":[0,0.19751643144034023,0.6120655998656237,1],"metallicFactor":0,"roughnessFactor":0.2},"name":"Garfield","emissiveFactor":[0,0,0],"extensions":{},"alphaMode":"OPAQUE","doubleSided":false},{"pbrMetallicRoughness":{"baseColorFactor":[0.8670237934377415,0.8670237934377415,0.8670237934377415,1],"metallicFactor":0,"roughnessFactor":0.2},"name":"Crystal Mist 2","emissiveFactor":[0,0,0],"extensions":{},"alphaMode":"OPAQUE","doubleSided":false}],"meshes":[{"primitives":[{"mode":4,"attributes":{"POSITION":1,"NORMAL":2,"TEXCOORD_0":3},"material":0,"indices":0}]},{"primitives":[{"mode":4,"attributes":{"POSITION":5,"NORMAL":6,"TEXCOORD_0":7},"material":0,"indices":4}]},{"primitives":[{"mode":4,"attributes":{"POSITION":9,"NORMAL":10,"TEXCOORD_0":11},"material":1,"indices":8}]},{"primitives":[{"mode":4,"attributes":{"POSITION":13,"NORMAL":14,"TEXCOORD_0":15},"material":1,"indices":12}]},{"primitives":[{"mode":4,"attributes":{"POSITION":17,"NORMAL":18,"TEXCOORD_0":19},"material":2,"indices":16}]},{"primitives":[{"mode":4,"attributes":{"POSITION":21,"NORMAL":22,"TEXCOORD_0":23},"material":2,"indices":20}]},{"primitives":[{"mode":4,"attributes":{"POSITION":25,"NORMAL":26,"TEXCOORD_0":27},"material":3,"indices":24}]},{"primitives":[{"mode":4,"attributes":{"POSITION":29,"NORMAL":30,"TEXCOORD_0":31},"material":3,"indices":28}]},{"primitives":[{"mode":4,"attributes":{"POSITION":33,"NORMAL":34,"TEXCOORD_0":35},"material":4,"indices":32}]},{"primitives":[{"mode":4,"attributes":{"POSITION":37,"NORMAL":38,"TEXCOORD_0":39},"material":4,"indices":36}]},{"primitives":[{"mode":4,"attributes":{"POSITION":41,"NORMAL":42,"TEXCOORD_0":43},"material":5,"indices":40}]},{"primitives":[{"mode":4,"attributes":{"POSITION":45,"NORMAL":46,"TEXCOORD_0":47},"material":6,"indices":44}]},{"primitives":[{"mode":4,"attributes":{"POSITION":49,"NORMAL":50,"TEXCOORD_0":51},"material":6,"indices":48}]}],"accessors":[{"bufferView":0,"byteOffset":0,"componentType":5125,"count":84,"type":"SCALAR"},{"bufferView":1,"byteOffset":0,"componentType":5126,"count":48,"max":[29.297000885009766,2.1766260702735327e-15,35.547000885009766],"min":[1.0989999771118164,-15,0],"type":"VEC3"},{"bufferView":2,"byteOffset":0,"componentType":5126,"count":48,"type":"VEC3"},{"bufferView":3,"byteOffset":0,"componentType":5126,"count":48,"type":"VEC2"},{"bufferView":4,"byteOffset":0,"componentType":5125,"count":1632,"type":"SCALAR"},{"bufferView":5,"byteOffset":0,"componentType":5126,"count":1090,"max":[28.368999481201172,2.2065072750702963e-15,36.03499984741211],"min":[1.8070000410079956,-15,-0.4880000054836273],"type":"VEC3"},{"bufferView":6,"byteOffset":0,"componentType":5126,"count":1090,"type":"VEC3"},{"bufferView":7,"byteOffset":0,"componentType":5126,"count":1090,"type":"VEC2"},{"bufferView":8,"byteOffset":0,"componentType":5125,"count":84,"type":"SCALAR"},{"bufferView":9,"byteOffset":0,"componentType":5126,"count":48,"max":[29.297000885009766,2.1766260702735327e-15,35.547000885009766],"min":[1.0989999771118164,-15,0],"type":"VEC3"},{"bufferView":10,"byteOffset":0,"componentType":5126,"count":48,"type":"VEC3"},{"bufferView":11,"byteOffset":0,"componentType":5126,"count":48,"type":"VEC2"},{"bufferView":12,"byteOffset":0,"componentType":5125,"count":1632,"type":"SCALAR"},{"bufferView":13,"byteOffset":0,"componentType":5126,"count":1090,"max":[28.368999481201172,2.2065072750702963e-15,36.03499984741211],"min":[1.8070000410079956,-15,-0.4880000054836273],"type":"VEC3"},{"bufferView":14,"byteOffset":0,"componentType":5126,"count":1090,"type":"VEC3"},{"bufferView":15,"byteOffset":0,"componentType":5126,"count":1090,"type":"VEC2"},{"bufferView":16,"byteOffset":0,"componentType":5125,"count":84,"type":"SCALAR"},{"bufferView":17,"byteOffset":0,"componentType":5126,"count":48,"max":[29.297000885009766,2.1766260702735327e-15,35.547000885009766],"min":[1.0989999771118164,-15,0],"type":"VEC3"},{"bufferView":18,"byteOffset":0,"componentType":5126,"count":48,"type":"VEC3"},{"bufferView":19,"byteOffset":0,"componentType":5126,"count":48,"type":"VEC2"},{"bufferView":20,"byteOffset":0,"componentType":5125,"count":1632,"type":"SCALAR"},{"bufferView":21,"byteOffset":0,"componentType":5126,"count":1090,"max":[28.368999481201172,2.2065072750702963e-15,36.03499984741211],"min":[1.8070000410079956,-15,-0.4880000054836273],"type":"VEC3"},{"bufferView":22,"byteOffset":0,"componentType":5126,"count":1090,"type":"VEC3"},{"bufferView":23,"byteOffset":0,"componentType":5126,"count":1090,"type":"VEC2"},{"bufferView":24,"byteOffset":0,"componentType":5125,"count":84,"type":"SCALAR"},{"bufferView":25,"byteOffset":0,"componentType":5126,"count":48,"max":[29.297000885009766,2.1766260702735327e-15,35.547000885009766],"min":[1.0989999771118164,-15,0],"type":"VEC3"},{"bufferView":26,"byteOffset":0,"componentType":5126,"count":48,"type":"VEC3"},{"bufferView":27,"byteOffset":0,"componentType":5126,"count":48,"type":"VEC2"},{"bufferView":28,"byteOffset":0,"componentType":5125,"count":1632,"type":"SCALAR"},{"bufferView":29,"byteOffset":0,"componentType":5126,"count":1090,"max":[28.368999481201172,2.2065072750702963e-15,36.03499984741211],"min":[1.8070000410079956,-15,-0.4880000054836273],"type":"VEC3"},{"bufferView":30,"byteOffset":0,"componentType":5126,"count":1090,"type":"VEC3"},{"bufferView":31,"byteOffset":0,"componentType":5126,"count":1090,"type":"VEC2"},{"bufferView":32,"byteOffset":0,"componentType":5125,"count":84,"type":"SCALAR"},{"bufferView":33,"byteOffset":0,"componentType":5126,"count":48,"max":[29.297000885009766,2.1766260702735327e-15,35.547000885009766],"min":[1.0989999771118164,-15,0],"type":"VEC3"},{"bufferView":34,"byteOffset":0,"componentType":5126,"count":48,"type":"VEC3"},{"bufferView":35,"byteOffset":0,"componentType":5126,"count":48,"type":"VEC2"},{"bufferView":36,"byteOffset":0,"componentType":5125,"count":1632,"type":"SCALAR"},{"bufferView":37,"byteOffset":0,"componentType":5126,"count":1090,"max":[28.368999481201172,2.2065072750702963e-15,36.03499984741211],"min":[1.8070000410079956,-15,-0.4880000054836273],"type":"VEC3"},{"bufferView":38,"byteOffset":0,"componentType":5126,"count":1090,"type":"VEC3"},{"bufferView":39,"byteOffset":0,"componentType":5126,"count":1090,"type":"VEC2"},{"bufferView":40,"byteOffset":0,"componentType":5125,"count":2916,"type":"SCALAR"},{"bufferView":41,"byteOffset":0,"componentType":5126,"count":596,"max":[50,50,100],"min":[-50,-50,0],"type":"VEC3"},{"bufferView":42,"byteOffset":0,"componentType":5126,"count":596,"type":"VEC3"},{"bufferView":43,"byteOffset":0,"componentType":5126,"count":596,"type":"VEC2"},{"bufferView":44,"byteOffset":0,"componentType":5125,"count":84,"type":"SCALAR"},{"bufferView":45,"byteOffset":0,"componentType":5126,"count":48,"max":[29.297000885009766,2.1766260702735327e-15,35.547000885009766],"min":[1.0989999771118164,-15,0],"type":"VEC3"},{"bufferView":46,"byteOffset":0,"componentType":5126,"count":48,"type":"VEC3"},{"bufferView":47,"byteOffset":0,"componentType":5126,"count":48,"type":"VEC2"},{"bufferView":48,"byteOffset":0,"componentType":5125,"count":1632,"type":"SCALAR"},{"bufferView":49,"byteOffset":0,"componentType":5126,"count":1090,"max":[28.368999481201172,2.2065072750702963e-15,36.03499984741211],"min":[1.8070000410079956,-15,-0.4880000054836273],"type":"VEC3"},{"bufferView":50,"byteOffset":0,"componentType":5126,"count":1090,"type":"VEC3"},{"bufferView":51,"byteOffset":0,"componentType":5126,"count":1090,"type":"VEC2"}],"bufferViews":[{"buffer":0,"byteOffset":0,"byteLength":336,"target":34963},{"buffer":0,"byteOffset":336,"byteLength":576,"target":34962},{"buffer":0,"byteOffset":912,"byteLength":576,"target":34962},{"buffer":0,"byteOffset":1488,"byteLength":384,"target":34962},{"buffer":0,"byteOffset":1872,"byteLength":6528,"target":34963},{"buffer":0,"byteOffset":8400,"byteLength":13080,"target":34962},{"buffer":0,"byteOffset":21480,"byteLength":13080,"target":34962},{"buffer":0,"byteOffset":34560,"byteLength":8720,"target":34962},{"buffer":0,"byteOffset":43280,"byteLength":336,"target":34963},{"buffer":0,"byteOffset":43616,"byteLength":576,"target":34962},{"buffer":0,"byteOffset":44192,"byteLength":576,"target":34962},{"buffer":0,"byteOffset":44768,"byteLength":384,"target":34962},{"buffer":0,"byteOffset":45152,"byteLength":6528,"target":34963},{"buffer":0,"byteOffset":51680,"byteLength":13080,"target":34962},{"buffer":0,"byteOffset":64760,"byteLength":13080,"target":34962},{"buffer":0,"byteOffset":77840,"byteLength":8720,"target":34962},{"buffer":0,"byteOffset":86560,"byteLength":336,"target":34963},{"buffer":0,"byteOffset":86896,"byteLength":576,"target":34962},{"buffer":0,"byteOffset":87472,"byteLength":576,"target":34962},{"buffer":0,"byteOffset":88048,"byteLength":384,"target":34962},{"buffer":0,"byteOffset":88432,"byteLength":6528,"target":34963},{"buffer":0,"byteOffset":94960,"byteLength":13080,"target":34962},{"buffer":0,"byteOffset":108040,"byteLength":13080,"target":34962},{"buffer":0,"byteOffset":121120,"byteLength":8720,"target":34962},{"buffer":0,"byteOffset":129840,"byteLength":336,"target":34963},{"buffer":0,"byteOffset":130176,"byteLength":576,"target":34962},{"buffer":0,"byteOffset":130752,"byteLength":576,"target":34962},{"buffer":0,"byteOffset":131328,"byteLength":384,"target":34962},{"buffer":0,"byteOffset":131712,"byteLength":6528,"target":34963},{"buffer":0,"byteOffset":138240,"byteLength":13080,"target":34962},{"buffer":0,"byteOffset":151320,"byteLength":13080,"target":34962},{"buffer":0,"byteOffset":164400,"byteLength":8720,"target":34962},{"buffer":0,"byteOffset":173120,"byteLength":336,"target":34963},{"buffer":0,"byteOffset":173456,"byteLength":576,"target":34962},{"buffer":0,"byteOffset":174032,"byteLength":576,"target":34962},{"buffer":0,"byteOffset":174608,"byteLength":384,"target":34962},{"buffer":0,"byteOffset":174992,"byteLength":6528,"target":34963},{"buffer":0,"byteOffset":181520,"byteLength":13080,"target":34962},{"buffer":0,"byteOffset":194600,"byteLength":13080,"target":34962},{"buffer":0,"byteOffset":207680,"byteLength":8720,"target":34962},{"buffer":0,"byteOffset":216400,"byteLength":11664,"target":34963},{"buffer":0,"byteOffset":228064,"byteLength":7152,"target":34962},{"buffer":0,"byteOffset":235216,"byteLength":7152,"target":34962},{"buffer":0,"byteOffset":242368,"byteLength":4768,"target":34962},{"buffer":0,"byteOffset":247136,"byteLength":336,"target":34963},{"buffer":0,"byteOffset":247472,"byteLength":576,"target":34962},{"buffer":0,"byteOffset":248048,"byteLength":576,"target":34962},{"buffer":0,"byteOffset":248624,"byteLength":384,"target":34962},{"buffer":0,"byteOffset":249008,"byteLength":6528,"target":34963},{"buffer":0,"byteOffset":255536,"byteLength":13080,"target":34962},{"buffer":0,"byteOffset":268616,"byteLength":13080,"target":34962},{"buffer":0,"byteOffset":281696,"byteLength":8720,"target":34962}],"scene":0,"scenes":[{"nodes":[0],"name":"TypeScript Cube"}],"extensionsUsed":["KHR_texture_transform"],"buffers":[{"byteLength":290416,"uri":"TypeScriptCube.bin"}]}