<svg width="216" height="216" viewBox="0 0 216 216" fill="none" xmlns="http://www.w3.org/2000/svg">
<g filter="url(#filter0_d_1307_142)">
<circle cx="108" cy="105" r="91" fill="white"/>
<circle cx="108" cy="105" r="90.5" stroke="#DDDDDD"/>
</g>
<path fill-rule="evenodd" clip-rule="evenodd" d="M82.5524 97.9652C82.5524 99.5497 82.7059 100.835 82.9748 101.777C83.2821 102.719 83.6664 103.747 84.2042 104.86C84.3961 105.203 84.473 105.545 84.473 105.845C84.473 106.273 84.2426 106.701 83.7433 107.13L81.323 108.928C80.9772 109.185 80.6318 109.314 80.3244 109.314C79.9402 109.314 79.5563 109.1 79.172 108.714C78.6342 108.072 78.1734 107.387 77.7891 106.701C77.4049 105.973 77.0209 105.16 76.5982 104.175C73.6017 108.115 69.8374 110.085 65.3045 110.085C62.0779 110.085 59.5041 109.057 57.622 107.001C55.7398 104.945 54.7793 102.205 54.7793 98.7787C54.7793 95.1384 55.9317 92.1836 58.2751 89.9567C60.6185 87.7298 63.73 86.6165 67.6863 86.6165C68.9923 86.6165 70.337 86.7447 71.7583 86.9591C73.1797 87.1731 74.6395 87.5158 76.1758 87.9013V84.7751C76.1758 81.5202 75.5611 79.2508 74.3702 77.9231C73.1409 76.5955 71.0667 75.9531 68.1087 75.9531C66.7643 75.9531 65.3814 76.1242 63.9601 76.5097C62.5387 76.8952 61.1559 77.3661 59.8115 77.9656C59.1968 78.2654 58.7359 78.4365 58.4671 78.5222C58.1982 78.608 58.0062 78.6505 57.8524 78.6505C57.3146 78.6505 57.0457 78.2221 57.0457 77.3228V75.2245C57.0457 74.5392 57.1227 74.0255 57.3146 73.7257C57.5066 73.426 57.8524 73.1262 58.3901 72.8265C59.7345 72.0554 61.3482 71.413 63.2304 70.8993C65.1129 70.3426 67.1101 70.0858 69.223 70.0858C73.7944 70.0858 77.1363 71.2419 79.2874 73.5546C81.4003 75.8673 82.4758 79.3786 82.4758 84.0894V97.9648H82.5528L82.5524 97.9652ZM66.9562 104.475C68.2241 104.475 69.53 104.218 70.9129 103.704C72.2958 103.19 73.5251 102.248 74.5622 100.963C75.1769 100.15 75.6377 99.25 75.8685 98.2225C76.0989 97.1946 76.2524 95.9526 76.2524 94.4967V92.6982C75.1384 92.3984 73.9475 92.1415 72.7185 91.97C71.4891 91.7989 70.2985 91.7132 69.1076 91.7132C66.5339 91.7132 64.6517 92.2698 63.3839 93.4263C62.116 94.5825 61.5017 96.2099 61.5017 98.3511C61.5017 100.364 61.9625 101.863 62.923 102.89C63.845 103.961 65.1895 104.475 66.9566 104.475L66.9562 104.475ZM97.8024 109.1C97.1108 109.1 96.65 108.971 96.3426 108.671C96.0353 108.414 95.7664 107.815 95.536 107.001L86.5087 73.8972C86.2783 73.0408 86.1629 72.4842 86.1629 72.1844C86.1629 71.4992 86.4703 71.1137 87.0849 71.1137H90.8496C91.5794 71.1137 92.079 71.2423 92.3479 71.5421C92.6552 71.7989 92.8856 72.3985 93.1161 73.2124L99.5696 101.562L105.562 73.2124C105.754 72.356 105.985 71.7989 106.292 71.5421C106.599 71.2852 107.137 71.1137 107.829 71.1137H110.902C111.631 71.1137 112.131 71.2423 112.438 71.5421C112.746 71.7989 113.015 72.3985 113.168 73.2124L119.237 101.905L125.883 73.2124C126.114 72.356 126.383 71.7989 126.651 71.5421C126.959 71.2852 127.458 71.1137 128.15 71.1137H131.722C132.337 71.1137 132.683 71.4563 132.683 72.1844C132.683 72.3985 132.644 72.6128 132.606 72.8697C132.567 73.1266 132.49 73.4692 132.337 73.9405L123.079 107.044C122.849 107.9 122.58 108.457 122.272 108.714C121.965 108.971 121.466 109.143 120.813 109.143H117.509C116.779 109.143 116.28 109.014 115.972 108.714C115.665 108.415 115.396 107.858 115.243 107.001L109.288 79.379L103.373 106.958C103.181 107.815 102.95 108.371 102.643 108.671C102.335 108.971 101.798 109.1 101.106 109.1H97.8028H97.8024ZM147.164 110.256C145.166 110.256 143.169 109.999 141.248 109.485C139.328 108.971 137.829 108.414 136.831 107.772C136.216 107.386 135.794 106.958 135.64 106.573C135.486 106.187 135.409 105.759 135.409 105.374V103.19C135.409 102.29 135.717 101.862 136.293 101.862C136.523 101.862 136.754 101.905 136.984 101.991C137.215 102.076 137.561 102.248 137.945 102.419C139.251 103.061 140.672 103.575 142.17 103.918C143.707 104.261 145.205 104.432 146.742 104.432C149.162 104.432 151.044 103.96 152.35 103.018C153.656 102.076 154.348 100.706 154.348 98.9498C154.348 97.7508 154.002 96.7658 153.311 95.9523C152.619 95.1384 151.313 94.4106 149.431 93.7253L143.861 91.7981C141.057 90.8131 138.982 89.3572 137.715 87.43C136.447 85.5457 135.794 83.4474 135.794 81.2205C135.794 79.4219 136.14 77.8374 136.831 76.4668C137.522 75.0963 138.444 73.8972 139.597 72.9551C140.749 71.9701 142.055 71.2423 143.592 70.7281C145.129 70.214 146.742 70 148.432 70C149.277 70 150.161 70.0429 151.006 70.1711C151.89 70.2998 152.696 70.4709 153.503 70.642C154.271 70.856 155.001 71.0704 155.692 71.3273C156.384 71.5842 156.922 71.841 157.306 72.0983C157.843 72.4409 158.228 72.7836 158.458 73.1687C158.689 73.5113 158.804 73.9826 158.804 74.5821V76.5951C158.804 77.4943 158.497 77.9656 157.92 77.9656C157.613 77.9656 157.114 77.7941 156.461 77.4515C154.271 76.3382 151.812 75.7812 149.085 75.7812C146.896 75.7812 145.167 76.1667 143.976 76.9802C142.785 77.7937 142.17 79.0356 142.17 80.7917C142.17 81.9907 142.555 83.0186 143.323 83.8321C144.091 84.6457 145.512 85.4596 147.548 86.1873L153.003 88.1145C155.769 89.0995 157.767 90.4701 158.957 92.2258C160.148 93.9814 160.725 95.9944 160.725 98.2213C160.725 100.063 160.379 101.733 159.726 103.189C159.034 104.645 158.113 105.93 156.922 106.958C155.731 108.028 154.31 108.799 152.658 109.356C150.929 109.955 149.124 110.255 147.164 110.255L147.164 110.256Z" fill="#2E2E2E"/>
<path fill-rule="evenodd" clip-rule="evenodd" d="M154.418 131.067C141.781 141.475 123.419 147 107.632 147C85.5056 147 65.5697 137.877 50.5117 122.715C49.3208 121.516 50.3966 119.889 51.8179 120.831C68.105 131.367 88.1951 137.749 108.976 137.749C122.997 137.749 138.4 134.494 152.575 127.812C154.687 126.741 156.493 129.354 154.418 131.067Z" fill="#FF9900"/>
<path fill-rule="evenodd" clip-rule="evenodd" d="M159.69 124.388C158.076 122.076 149.006 123.275 144.894 123.832C143.664 124.003 143.472 122.804 144.587 121.905C151.812 116.252 163.686 117.879 165.07 119.763C166.453 121.691 164.685 134.924 157.922 141.261C156.885 142.246 155.885 141.733 156.347 140.448C157.884 136.208 161.304 126.658 159.69 124.388H159.69Z" fill="#FF9900"/>
<defs>
<filter id="filter0_d_1307_142" x="0" y="0" width="216" height="216" filterUnits="userSpaceOnUse" color-interpolation-filters="sRGB">
<feFlood flood-opacity="0" result="BackgroundImageFix"/>
<feColorMatrix in="SourceAlpha" type="matrix" values="0 0 0 0 0 0 0 0 0 0 0 0 0 0 0 0 0 0 127 0" result="hardAlpha"/>
<feMorphology radius="2" operator="dilate" in="SourceAlpha" result="effect1_dropShadow_1307_142"/>
<feOffset dy="3"/>
<feGaussianBlur stdDeviation="7.5"/>
<feComposite in2="hardAlpha" operator="out"/>
<feColorMatrix type="matrix" values="0 0 0 0 0 0 0 0 0 0 0 0 0 0 0 0 0 0 0.08 0"/>
<feBlend mode="normal" in2="BackgroundImageFix" result="effect1_dropShadow_1307_142"/>
<feBlend mode="normal" in="SourceGraphic" in2="effect1_dropShadow_1307_142" result="shape"/>
</filter>
</defs>
</svg>
