<svg width="216" height="216" viewBox="0 0 216 216" fill="none" xmlns="http://www.w3.org/2000/svg">
<g filter="url(#filter0_d_1307_135)">
<circle cx="108" cy="105" r="91" fill="white"/>
<circle cx="108" cy="105" r="90.5" stroke="#DDDDDD"/>
</g>
<g clip-path="url(#clip0_1307_135)">
<path d="M121.603 89.6469L110.893 99.6113L100.955 79.5655L106.098 68.0362C107.435 65.6956 109.522 65.7223 110.826 68.0362L121.603 89.6469Z" fill="#FFA000"/>
<path d="M100.96 79.5654L110.898 99.6112L70.873 136.844L100.96 79.5654Z" fill="#F57F17"/>
<path d="M133.321 74.4162C135.234 72.5772 137.213 73.2058 137.718 75.8106L148.137 136.349L113.603 157.08C112.399 157.749 109.189 158.037 109.189 158.037C109.189 158.037 106.267 157.689 105.153 157.034L70.873 136.844L133.321 74.4162Z" fill="#FFCA28"/>
<path d="M100.957 79.5657L70.873 136.844L84.2715 53.1334C84.7663 50.5253 86.251 50.2745 87.5751 52.575L100.957 79.5657Z" fill="#FFA000"/>
</g>
<defs>
<filter id="filter0_d_1307_135" x="0" y="0" width="216" height="216" filterUnits="userSpaceOnUse" color-interpolation-filters="sRGB">
<feFlood flood-opacity="0" result="BackgroundImageFix"/>
<feColorMatrix in="SourceAlpha" type="matrix" values="0 0 0 0 0 0 0 0 0 0 0 0 0 0 0 0 0 0 127 0" result="hardAlpha"/>
<feMorphology radius="2" operator="dilate" in="SourceAlpha" result="effect1_dropShadow_1307_135"/>
<feOffset dy="3"/>
<feGaussianBlur stdDeviation="7.5"/>
<feComposite in2="hardAlpha" operator="out"/>
<feColorMatrix type="matrix" values="0 0 0 0 0 0 0 0 0 0 0 0 0 0 0 0 0 0 0.08 0"/>
<feBlend mode="normal" in2="BackgroundImageFix" result="effect1_dropShadow_1307_135"/>
<feBlend mode="normal" in="SourceGraphic" in2="effect1_dropShadow_1307_135" result="shape"/>
</filter>
<clipPath id="clip0_1307_135">
<rect width="107" height="107" fill="white" transform="translate(56 51)"/>
</clipPath>
</defs>
</svg>
