<svg width="216" height="216" viewBox="0 0 216 216" fill="none" xmlns="http://www.w3.org/2000/svg">
<g filter="url(#filter0_d_1307_129)">
<circle cx="108" cy="105" r="91" fill="white"/>
<circle cx="108" cy="105" r="90.5" stroke="#DDDDDD"/>
</g>
<g clip-path="url(#clip0_1307_129)">
<path d="M107.103 41.3453L110.492 47.7112C111.254 48.886 112.079 49.9258 113.052 50.8942C115.889 53.7318 118.584 56.7044 121.005 59.8873C126.748 67.428 130.621 75.802 133.388 84.8587C135.047 90.3912 135.947 96.0665 136.015 101.805C136.293 118.962 130.411 133.694 118.552 145.938C116.616 147.875 114.544 149.668 112.321 151.264C111.147 151.264 110.591 150.363 110.107 149.533C109.206 148.013 108.654 146.279 108.377 144.553C107.96 142.477 107.686 140.401 107.821 138.258V137.29C107.726 137.083 106.69 41.8335 107.103 41.3453Z" fill="#599636"/>
<path d="M107.101 41.135C106.963 40.8571 106.824 41.0675 106.685 41.2024C106.752 42.5915 106.268 43.8297 105.51 45.0124C104.677 46.1872 103.573 47.0881 102.466 48.0565C96.3144 53.3825 91.4725 59.8159 87.595 67.0112C82.4357 76.6949 79.7766 87.0732 79.0225 97.9992C78.6773 101.94 80.2687 115.847 81.5109 119.859C84.9003 130.511 90.9883 139.437 98.8742 147.184C100.811 149.049 102.883 150.78 105.026 152.443C105.649 152.443 105.716 151.887 105.859 151.474C106.132 150.591 106.341 149.689 106.482 148.775L107.871 138.401L107.101 41.135Z" fill="#6CAC48"/>
<path d="M110.494 155.479C110.633 153.891 111.395 152.573 112.225 151.26C111.391 150.915 110.772 150.228 110.288 149.462C109.871 148.771 109.526 147.942 109.256 147.18C108.288 144.275 108.081 141.227 107.803 138.258V136.46C107.458 136.738 107.387 139.088 107.387 139.437C107.185 142.574 106.768 145.695 106.141 148.775C105.934 150.022 105.795 151.264 105.029 152.371C105.029 152.51 105.029 152.649 105.097 152.855C106.343 156.522 106.684 160.257 106.895 164.063V165.452C106.895 167.111 106.827 166.762 108.204 167.317C108.76 167.524 109.379 167.595 109.935 168.008C110.351 168.008 110.419 167.663 110.419 167.385L110.212 165.103V158.737C110.145 157.626 110.351 156.522 110.49 155.483L110.494 155.479Z" fill="#C2BFBF"/>
</g>
<defs>
<filter id="filter0_d_1307_129" x="0" y="0" width="216" height="216" filterUnits="userSpaceOnUse" color-interpolation-filters="sRGB">
<feFlood flood-opacity="0" result="BackgroundImageFix"/>
<feColorMatrix in="SourceAlpha" type="matrix" values="0 0 0 0 0 0 0 0 0 0 0 0 0 0 0 0 0 0 127 0" result="hardAlpha"/>
<feMorphology radius="2" operator="dilate" in="SourceAlpha" result="effect1_dropShadow_1307_129"/>
<feOffset dy="3"/>
<feGaussianBlur stdDeviation="7.5"/>
<feComposite in2="hardAlpha" operator="out"/>
<feColorMatrix type="matrix" values="0 0 0 0 0 0 0 0 0 0 0 0 0 0 0 0 0 0 0.08 0"/>
<feBlend mode="normal" in2="BackgroundImageFix" result="effect1_dropShadow_1307_129"/>
<feBlend mode="normal" in="SourceGraphic" in2="effect1_dropShadow_1307_129" result="shape"/>
</filter>
<clipPath id="clip0_1307_129">
<rect width="127" height="127" fill="white" transform="translate(44 41)"/>
</clipPath>
</defs>
</svg>
